<?xml version="1.0" standalone="no"?>
<!DOCTYPE svg PUBLIC "-//W3C//DTD SVG 1.1//EN" "http://www.w3.org/Graphics/SVG/1.1/DTD/svg11.dtd" >
<svg xmlns="http://www.w3.org/2000/svg">
<metadata></metadata>
<defs>
<font id="bullpenregular" horiz-adv-x="1126" >
<font-face units-per-em="2048" ascent="1638" descent="-410" />
<missing-glyph horiz-adv-x="612" />
<glyph horiz-adv-x="0" />
<glyph unicode="&#xd;" horiz-adv-x="1024" />
<glyph unicode=" "  horiz-adv-x="612" />
<glyph unicode="&#x09;" horiz-adv-x="612" />
<glyph unicode="&#xa0;" horiz-adv-x="612" />
<glyph unicode="!" horiz-adv-x="632" d="M121 932v706h389v-704l-123 -471h-143zM125 135v84q0 141 129 141h121q127 0 127 -137v-88q0 -137 -127 -137h-119q-131 0 -131 137z" />
<glyph unicode="&#x22;" horiz-adv-x="686" d="M104 1638h209l-57 -471q-6 -35 -49 -34q-41 0 -47 34zM371 1638h209l-58 -471q-6 -35 -49 -34q-41 0 -47 34z" />
<glyph unicode="#" horiz-adv-x="1105" d="M72 557l34 131h158l70 258h-158l35 131h158l86 324h131l-86 -324h258l86 324h131l-86 -324h143l-35 -131h-143l-70 -258h144l-35 -131h-143l-86 -321h-132l86 321h-258l-86 -321h-131l86 321h-157zM395 688h258l70 258h-258z" />
<glyph unicode="$" horiz-adv-x="1239" d="M100 377v115h369v-101q0 -66 125 -67v399q-2 2 -16 2q-16 0 -19 2h-137q-319 14 -320 262v283q0 287 347 287h145v79h65v-79h168q309 0 310 -293v-115h-369v100q0 59 -109 66v-399l19 -3h137q319 -16 320 -262v-282q0 -287 -347 -287h-129v-84h-65v84h-184 q-309 0 -310 293zM492 1020q0 -61 102 -90v387q-102 -10 -102 -66v-231zM659 326q86 12 86 65v232q0 55 -86 84v-381z" />
<glyph unicode="%" horiz-adv-x="1536" d="M106 1038v475q0 127 191 127h121q188 0 188 -131v-471q0 -127 -190 -127h-121q-188 0 -189 127zM205 0l1059 1638h104l-1059 -1638h-104zM297 1047q0 -31 59 -31t60 31v456q0 31 -60 31q-59 0 -59 -31v-456zM926 127v475q0 127 190 127h121q188 0 188 -131v-471 q0 -127 -190 -127h-121q-188 0 -188 127zM1116 135q0 -31 60 -31q59 0 59 31v457q0 31 -59 31t-60 -31v-457z" />
<glyph unicode="&#x26;" horiz-adv-x="1527" d="M84 168v399q-2 94 96 160l254 191l-65 182q-20 51 -30.5 94t-8.5 82v174q-4 188 245 188h340q182 0 183 -139v-270q0 -150 -221 -318l102 -297q61 61 65 195v121h336v-221h-184q-31 -217 -131 -355l12 -43q29 -72 97 -71q68 0 67 67v234h225v-254q0 -287 -354 -287 q-254 0 -354 100q-113 -100 -180 -100h-326q-168 0 -168 168zM469 309q0 -73 70 -73q100 0 123 30l-138 377q-55 -37 -55 -76v-258zM764 1292q0 -63 37 -168q104 92 102 148v78q0 51 -57 51h-25q-57 0 -57 -37v-72z" />
<glyph unicode="'" horiz-adv-x="378" d="M84 1638h209l-57 -471q-6 -35 -50 -34q-41 0 -47 34z" />
<glyph unicode="(" horiz-adv-x="567" d="M84 864q0 516 97.5 755t324.5 222v-84q-125 2 -203 -168q-76 -158 -76 -710q0 -553 76 -773q78 -227 203 -235v-96q-227 -4 -324 284q-96 291 -98 805z" />
<glyph unicode=")" horiz-adv-x="567" d="M61 -131q125 -2 201 166q78 180 78 713q0 530 -78 770q-76 229 -201 237v96q227 4 324 -286q96 -301 96 -805q2 -514 -95 -752.5t-325 -222.5v84z" />
<glyph unicode="*" horiz-adv-x="929" d="M72 1249l123 213l237 -227l-10 330l244 -54l-146 -292l309 110l27 -248l-326 47l201 -260l-225 -100l-57 324l-187 -273l-164 185l291 153z" />
<glyph unicode="+" horiz-adv-x="1007" d="M53 709v221h340v340h221v-340h340v-221h-340v-340h-221v340h-340z" />
<glyph unicode="," horiz-adv-x="575" d="M94 219q0 141 129 141h121q127 0 127 -176q0 -256 -211 -256h-86v72h80q86 0 86 80h-98q-148 0 -148 139z" />
<glyph unicode="-" horiz-adv-x="845" d="M125 709v221h594v-221h-594z" />
<glyph unicode="." horiz-adv-x="606" d="M113 135v84q0 141 129 141h120q127 0 127 -137v-88q0 -137 -127 -137h-118q-131 0 -131 137z" />
<glyph unicode="/" horiz-adv-x="847" d="M37 0l670 1638h104l-670 -1638h-104z" />
<glyph unicode="0" horiz-adv-x="1239" d="M82 287v1067q0 287 430 286h231q424 0 424 -292v-1061q0 -287 -430 -287h-231q-424 0 -424 287zM512 303q0 -68 113 -67q113 0 112 67v1030q0 68 -112 68q-113 0 -113 -68v-1030z" />
<glyph unicode="1" horiz-adv-x="958" d="M102 0v236h177v993h-177v172q291 0 295 237h314v-1402h166v-236h-775z" />
<glyph unicode="2" horiz-adv-x="1169" d="M82 0v502q10 387 317 481l197 68q109 35 109 116v144q0 88 -187 88q-193 0 -192 -88v-203h-226v250q0 281 492 280q502 0 502 -286v-271q0 -244 -316 -362l-221 -86q-209 -59 -209 -266v-131q193 174 356.5 71.5t163.5 44.5v189h228v-209q2 -332 -232 -332 q-236 0 -373 69.5t-223 -69.5h-186z" />
<glyph unicode="3" horiz-adv-x="1146" d="M82 281v249h225v-202q0 -88 193 -88q186 0 186 88v143q0 238 -108 238h-191v221h191q109 0 108 237v144q0 88 -186 88q-193 0 -193 -88v-203h-225v250q0 281 491 280q502 0 502 -286v-271q0 -223 -241 -262q242 -33 241 -262v-270q0 -287 -502 -287q-492 0 -491 281z" />
<glyph unicode="4" horiz-adv-x="1277" d="M82 707l702 931h408v-237h-117v-713h121v-233h-121v-219h117v-236h-660v236h113v219h-561zM289 688h356v475z" />
<glyph unicode="5" horiz-adv-x="1155" d="M82 709v929h248q444 -152 737 0v-135q-262 -375 -756 -102v-445q117 49 318 48q453 -2 450 -371v-346q0 -287 -479 -287q-514 0 -514 375v166h225v-164q0 -137 189 -137q190 0 190 137v285q0 158 -174 157q-160 0 -205 -110h-229z" />
<glyph unicode="6" horiz-adv-x="1187" d="M82 287v1065q0 287 528 286q502 0 506 -280v-250h-225v223q0 68 -203 68q-219 0 -219 -68v-401q63 61 250 61q393 0 397 -262v-442q0 -287 -524 -287q-510 0 -510 287zM469 307q0 -68 149 -67q129 0 130 67v389q-5 74 -146 74q-133 0 -133 -74v-389z" />
<glyph unicode="7" horiz-adv-x="1175" d="M86 1098v209q-4 332 229 331q233 0 372.5 -71.5t225.5 71.5h187v-194q4 -328 -146 -488l-92 -94q-119 -117 -119 -461v-401h-411v383q-2 319 250 557l200 203q129 111 131 260q-272 -174 -436 -71.5t-164 -45.5v-188h-227z" />
<glyph unicode="8" horiz-adv-x="1116" d="M82 287v301q0 166 137 229q-137 68 -137 234v301q0 287 430 286h190q342 0 342 -292v-295q0 -166 -139 -234q139 -68 139 -235v-295q0 -287 -348 -287h-190q-424 0 -424 287zM348 303q0 -68 162 -67q145 0 145 67v326q0 68 -145 67q-162 0 -162 -67v-326zM471 1006 q0 -68 162 -68q145 0 145 68v325q0 68 -145 68q-162 0 -162 -68v-325z" />
<glyph unicode="9" horiz-adv-x="1187" d="M82 281v249h225v-223q0 -68 211 -67q209 0 209 67v402q-66 -61 -235 -62q-406 0 -410 262v443q0 287 524 286q510 0 510 -286v-1065q0 -287 -528 -287q-502 0 -506 281zM471 942q2 -74 133 -74q123 0 123 74v389q0 68 -127 68q-129 0 -129 -68v-389z" />
<glyph unicode=":" horiz-adv-x="612" d="M117 135v84q0 141 129 141h121q127 0 127 -137v-88q0 -137 -127 -137h-119q-131 0 -131 137zM117 762v84q0 141 129 141h121q127 0 127 -137v-88q0 -137 -127 -137h-119q-131 0 -131 137z" />
<glyph unicode=";" horiz-adv-x="577" d="M90 219q0 141 129 141h121q127 0 127 -176q0 -256 -211 -256h-86v72h80q86 0 86 80h-98q-148 0 -148 139zM90 762v84q0 141 129 141h121q127 0 127 -137v-88q0 -137 -127 -137h-119q-131 0 -131 137z" />
<glyph unicode="&#x3c;" horiz-adv-x="714" d="M35 770v98l596 361v-135l-484 -275l484 -274v-135z" />
<glyph unicode="=" horiz-adv-x="974" d="M125 524v181h778v-181h-778zM125 934v180h778v-180h-778z" />
<glyph unicode="&#x3e;" horiz-adv-x="755" d="M125 410v135l481 274l-481 275v135l594 -361v-98z" />
<glyph unicode="?" horiz-adv-x="1153" d="M86 1108v250q0 281 492 280q502 0 501 -286v-209q0 -227 -211 -357q-242 -88 -241 -294v-29h-267v250q0 221 263 336q68 20 67 100v162q0 88 -186 88q-193 0 -193 -88v-203h-225zM303 135v84q0 141 129 141h121q127 0 127 -137v-88q0 -137 -127 -137h-119 q-131 0 -131 137z" />
<glyph unicode="@" horiz-adv-x="1402" d="M111 430v780q0 287 430 287h231q518 0 518 -293v-606q0 -111 -108 -111h-308q-78 0 -98 52q-45 -51 -186 -52q-158 0 -158 113v397q0 150 158 150q147 0 174 -51v51l231 2v-506q0 -45 74 -45q63 0 68 43v582q0 133 -420 141h-115q-334 0 -334 -141v-801q0 -141 365 -141 h364v-138h-462q-424 0 -424 287zM664 686q0 -37 49 -37q47 0 51 31v313q-4 29 -51 29q-49 0 -49 -33v-303z" />
<glyph unicode="A" horiz-adv-x="1472" d="M31 0v238h162l296 1400h478l342 -1400h133v-238h-656v238h99l-33 172h-360l-35 -172h96v-238h-522zM535 614h278l-135 736z" />
<glyph unicode="B" horiz-adv-x="1363" d="M102 0v236h113v1165h-113v237h895q281 0 281 -211v-417q0 -145 -170 -185q184 -31 184 -196v-418q0 -211 -295 -211h-895zM645 236h158q57 0 57 69v344q0 59 -57 60h-158v-473zM645 930h158q57 0 57 59v344q0 68 -57 68h-158v-471z" />
<glyph unicode="C" horiz-adv-x="1253" d="M102 287v1065q0 286 427 286h3q307 0 377 -137v137h228v-530h-226v223q0 68 -190 68q-188 0 -189 -68v-1024q0 -67 184 -67h5q190 0 190 67v234h226v-254q0 -287 -580 -287q-455 0 -455 287z" />
<glyph unicode="D" horiz-adv-x="1363" d="M102 0v236h113v1165h-113v237h895q295 0 295 -211v-1216q0 -211 -295 -211h-895zM645 236h158q57 0 57 69v1028q0 68 -57 68h-158v-1165z" />
<glyph unicode="E" horiz-adv-x="1370" d="M102 0v236h113v1165h-113v237h1186v-530h-225v293h-418v-471h137v239h172v-690h-172v230h-137v-473h428v305h225v-541h-1196z" />
<glyph unicode="F" horiz-adv-x="1329" d="M102 0v236h113v1165h-113v237h1196v-530h-225v293h-428v-490h137v240h172v-690h-172v229h-137v-454h135v-236h-678z" />
<glyph unicode="G" horiz-adv-x="1273" d="M82 287v1065q0 286 427 286h3q307 0 377 -137v137h227v-530h-225v223q0 68 -191 68q-188 0 -188 -68v-1024q0 -67 123 -67h4q129 0 129 67v234h-102v168h536v-168h-82v-541h-205l-34 133q-115 -133 -344 -133q-455 0 -455 287z" />
<glyph unicode="H" horiz-adv-x="1622" d="M102 0v236h113v1165h-113v237h660v-237h-117v-471h348v471h-112v237h659v-237h-117v-1165h117v-236h-659v236h112v473h-348v-473h117v-236h-660z" />
<glyph unicode="I" horiz-adv-x="843" d="M102 0v236h113v1165h-113v237h660v-237h-117v-1165h117v-236h-660z" />
<glyph unicode="J" horiz-adv-x="1122" d="M41 287v254h225v-234q0 -67 106 -67h3q106 0 106 67v1094h-139v237h698v-237h-129v-1114q0 -287 -454 -287q-416 0 -416 287z" />
<glyph unicode="K" horiz-adv-x="1579" d="M102 0v236h113v1165h-113v237h660v-237h-117v-393l393 393h-153v237h612v-237h-158l-319 -320l414 -845h63v-236h-612v236h112l-247 575l-105 -104v-471h117v-236h-660z" />
<glyph unicode="L" horiz-adv-x="1167" d="M102 0v236h113v1165h-113v237h676v-237h-133v-1165h266v305h226v-541h-1035z" />
<glyph unicode="M" horiz-adv-x="1888" d="M102 0v236h113v1165h-113v237h650l231 -901l274 901h549v-237h-116v-1165h116v-236h-618v236h112v993l-362 -1229h-168l-371 1229v-993h117v-236h-414z" />
<glyph unicode="N" horiz-adv-x="1394" d="M102 0v236h113v1165h-113v237h410l563 -868v631h-131v237h432v-237h-116v-1401h-277l-584 938v-702h117v-236h-414z" />
<glyph unicode="O" horiz-adv-x="1280" d="M82 287v1067q0 286 427 286h3h272q424 0 424 -292v-1061q0 -287 -430 -287h-272q-424 0 -424 287zM512 303q0 -67 129 -67h4q133 0 133 67v1030q0 68 -133 68t-133 -68v-1030z" />
<glyph unicode="P" horiz-adv-x="1368" d="M102 1401v237h895q295 0 295 -211v-452q0 -281 -295 -281h-352v-458h76v-236h-608v236h102v1165h-113zM645 930h158q57 0 57 59v344q0 68 -57 68h-158v-471z" />
<glyph unicode="Q" horiz-adv-x="1294" d="M82 287v1067q0 286 427 286h3h272q424 0 424 -292v-1061q0 -256 -329 -287q0 -43 33.5 -82t78.5 -54q23 -9 47 -9q22 0 45 7q47 15 74 77l119 -50q-35 -80 -90.5 -119.5t-116.5 -47.5q-19 -3 -37 -3q-43 0 -86 13q-63 20 -113.5 59t-82 93.5t-31.5 115.5h-213 q-424 0 -424 287zM512 303q0 -67 129 -67h4h10q6 20 -6 42.5t-33.5 39t-49 22.5t-54.5 -6v-31zM512 487q24 5 47 5q21 0 42 -4q44 -9 80 -30.5t61.5 -52t35.5 -63.5v991q0 68 -133 68t-133 -68v-846z" />
<glyph unicode="R" horiz-adv-x="1515" d="M102 0v236h113v1165h-113v237h895q295 0 295 -211v-417q0 -166 -184 -191q184 -25 184 -190v-389q0 -35 35 -35q37 0 37 35v374h131v-409q0 -205 -201 -205h-229q-205 0 -205 203v446q0 59 -57 60h-158v-473h107v-236h-650zM645 930h158q57 0 57 59v344q0 68 -57 68h-158 v-471z" />
<glyph unicode="S" horiz-adv-x="1187" d="M82 0v541h225v-164q0 -137 209 -137q211 0 211 108v82q0 143 -178 209l-115 35q-352 117 -352 387v291q0 286 427 286h3q307 0 377 -137v137h227v-530h-225v145q0 145 -213 146q-207 0 -207 -90v-95q0 -133 180 -190l150 -37q305 -98 315 -354v-346q0 -287 -430 -287 q-307 0 -377 137v-137h-227z" />
<glyph unicode="T" horiz-adv-x="1269" d="M31 1108v530h1208v-530h-225v293h-164v-1165h115v-236h-658v236h113v1165h-164v-293h-225z" />
<glyph unicode="U" horiz-adv-x="1550" d="M102 1401v237h678v-237h-131v-1036q0 -129 215 -129t215 129v1036h-114v237h503v-237h-122v-1114q0 -287 -431 -287h-272q-424 0 -424 287v1114h-117z" />
<glyph unicode="V" horiz-adv-x="1411" d="M0 1401v237h655v-237h-98l168 -897l39 -215l37 215l184 897h-96v237h522v-237h-162l-297 -1401h-477l-383 1401h-92z" />
<glyph unicode="W" horiz-adv-x="2230" d="M0 1401v237h643v-237h-86l168 -897l39 -195l37 195l184 897h-96v237h588v-237h-101l168 -897l39 -195l37 195l184 897h-96v237h522v-237h-162l-296 -1401h-478l-161 848l-181 -848h-477l-383 1401h-92z" />
<glyph unicode="X" horiz-adv-x="1662" d="M102 0v236h156l344 544l-358 621h-142v237h727v-237h-90l152 -225l53 -113l49 111l154 227h-82v237h516v-237h-162l-325 -531l366 -634h121v-236h-725v236h90l-147 229l-47 110l-50 -110l-145 -229h109v-236h-564z" />
<glyph unicode="Y" horiz-adv-x="1411" d="M0 1401v237h719v-237h-150l179 -348l61 -158l53 158l160 348h-133v237h522v-237h-141l-336 -758v-407h117v-236h-660v236h113v407l-412 758h-92z" />
<glyph unicode="Z" horiz-adv-x="1253" d="M82 0v236l612 1107l62 70h-498v-184h-174v409h1098v-245l-596 -1112l-58 -66h480v195h174v-410h-1100z" />
<glyph unicode="[" horiz-adv-x="468" d="M121 12v1602q0 244 164 244q29 0 59.5 -4.5t65.5 -12.5v-84q-125 -8 -125 -86v-1714q0 -78 125 -86v-96q-25 -2 -50.5 -3t-52.5 -1q-186 0 -186 241z" />
<glyph unicode="\" horiz-adv-x="847" d="M37 1638h104l670 -1638h-104z" />
<glyph unicode="]" horiz-adv-x="473" d="M57 -131q125 8 125 86v1714q0 78 -125 86v96q25 2 50.5 3t52.5 1q186 0 186 -241v-1602q0 -243 -164 -243q-29 0 -59.5 4t-65.5 12v84z" />
<glyph unicode="^" horiz-adv-x="956" d="M68 1042l360 596h98l361 -596h-135l-275 484l-274 -484h-135z" />
<glyph unicode="_" horiz-adv-x="1058" d="M125 -254h807v-156h-807v156z" />
<glyph unicode="`" horiz-adv-x="751" d="M43 1571h412l213 -205h-172z" />
<glyph unicode="a" horiz-adv-x="1153" d="M82 211v737q0 281 295 281q197 0 250 -99v99h430v-1229h-226q-141 0 -184 94q-86 -94 -270 -94q-295 0 -295 211zM514 369q0 -68 57 -68q53 0 56 57v584q-2 51 -58 51q-55 0 -55 -59v-565z" />
<glyph unicode="b" horiz-adv-x="1159" d="M10 1393v245h533v-508q51 98 250 99q295 0 294 -281v-737q0 -211 -294 -211q-199 0 -250 82v-82h-430v1393h-103zM543 369q0 -68 55 -68q57 0 57 68v565q0 59 -57 59q-55 0 -55 -59v-565z" />
<glyph unicode="c" horiz-adv-x="1167" d="M123 287v655q0 287 430 287h119q424 0 424 -293v-238h-430v224q0 67 -56 67h-2q-55 0 -55 -67v-615q0 -67 53 -67h2q57 0 58 67v234h430v-254q0 -287 -430 -287h-119q-424 0 -424 287z" />
<glyph unicode="d" horiz-adv-x="1132" d="M82 211v737q0 281 295 281q197 0 250 -99v263h-99v245h529v-1638h-226q-141 0 -184 94q-86 -94 -270 -94q-295 0 -295 211zM514 369q0 -68 57 -68q53 0 56 57v584q-2 51 -58 51q-55 0 -55 -59v-565z" />
<glyph unicode="e" d="M82 287v655q0 287 430 287h119q424 0 424 -293v-379h-543v-250q0 -67 74 -67h2q78 0 78 67v187h389v-207q0 -287 -430 -287h-119q-424 0 -424 287zM512 758h113v164q0 67 -56 67h-2q-55 0 -55 -67v-164z" />
<glyph unicode="f" horiz-adv-x="913" d="M20 778v246h105v328q0 286 427 286h3h41q358 0 358 -286v-62h-286v45q0 68 -58 68q-55 0 -55 -68v-311h195v-246h-195v-778h-430v778h-105z" />
<glyph unicode="g" horiz-adv-x="1128" d="M82 307v711q0 211 295 211q199 0 250 -82v82h430v-1379q-33 -260 -451 -260h-102q-399 0 -400 287v82h287v-65q0 -68 119 -68q115 0 117 57v189q-27 -57 -109 -58h-141q-295 0 -295 293zM514 322q0 -59 55 -60q57 0 58 60v548q-2 57 -56 58q-57 0 -57 -68v-538z" />
<glyph unicode="h" horiz-adv-x="1169" d="M10 1393v245h543v-491q51 82 250 82q293 0 293 -211v-1018h-430v860q0 68 -58 68q-55 0 -55 -68v-860h-430v1393h-113z" />
<glyph unicode="i" horiz-adv-x="636" d="M10 983v246h543v-1229h-430v983h-113zM106 1413v84q0 141 130 141h202q127 0 127 -137v-88q0 -137 -127 -137h-200q-131 0 -132 137z" />
<glyph unicode="j" horiz-adv-x="628" d="M-152 -41h287v-65q0 -68 58 -68q55 0 55 68q0 72 -62 151q-61 82 -61 182v756h-113v246h543v-1352q0 -287 -307 -287h-41q-358 0 -359 287v82zM109 1413v84q0 141 129 141h202q127 0 127 -137v-88q0 -137 -127 -137h-200q-131 0 -131 137z" />
<glyph unicode="k" horiz-adv-x="1269" d="M10 1393v245h543v-919l264 264h-65v246h458v-246h-161l-150 -147l332 -836h-453l-186 528l-39 -39v-489h-430v1393h-113z" />
<glyph unicode="l" horiz-adv-x="630" d="M14 1393v245h543v-1638h-430v1393h-113z" />
<glyph unicode="m" horiz-adv-x="1683" d="M10 983v246h543v-82q51 82 250 82q174 0 229 -115q78 115 273 115q293 0 292 -211v-1018h-430v860q0 68 -57 68q-55 0 -55 -68v-860h-389v860q0 68 -58 68q-55 0 -55 -68v-860h-430v983h-113z" />
<glyph unicode="n" horiz-adv-x="1175" d="M10 983v246h543v-82q51 82 250 82q293 0 293 -211v-1018h-430v860q0 68 -58 68q-55 0 -55 -68v-860h-430v983h-113z" />
<glyph unicode="o" d="M82 287v655q0 287 430 287h119q424 0 424 -293v-649q0 -287 -430 -287h-119q-424 0 -424 287zM512 303q0 -67 53 -67h2q57 0 58 67v619q0 67 -56 67h-2q-55 0 -55 -67v-619z" />
<glyph unicode="p" horiz-adv-x="1169" d="M10 983v246h543v-82q51 82 250 82q295 0 295 -211v-737q0 -281 -295 -281h-250v-164h76v-246h-609v246h103v1147h-113zM553 295q0 -59 55 -59q57 0 58 59v565q0 68 -58 68q-55 0 -55 -68v-565z" />
<glyph unicode="q" horiz-adv-x="1159" d="M82 281v737q0 211 295 211q199 0 250 -82v82h430v-1393h102v-246h-608v246h76v164h-250q-295 0 -295 281zM514 295q0 -59 55 -59q57 0 58 59v565q0 68 -56 68q-57 0 -57 -68v-565z" />
<glyph unicode="r" horiz-adv-x="1132" d="M10 983v246h543v-82q51 82 250 82q293 0 293 -211v-320h-430v162q0 68 -58 68q-55 0 -55 -68v-860h-430v983h-113z" />
<glyph unicode="s" horiz-adv-x="1107" d="M82 293v156h369v-142q0 -67 95 -67h3q96 0 96 67v109q0 86 -186 104h-56q-319 14 -319 262v160q0 287 346 287h297q309 0 309 -293v-156h-368v142q0 67 -96 67h-3q-96 0 -96 -67v-109q0 -86 186 -104h56q319 -16 319 -263v-159q0 -287 -346 -287h-297q-309 0 -309 293z " />
<glyph unicode="t" horiz-adv-x="808" d="M10 983v246h72q246 0 250 244v165h241v-409h179v-246h-179v-743q0 -35 37 -35t37 35v374h131v-409q0 -205 -200 -205h-230q-205 0 -205 203v780h-133z" />
<glyph unicode="u" horiz-adv-x="1169" d="M10 983v246h522v-860q0 -68 56 -68q57 0 57 68v860h430v-1229h-225q-143 0 -186 98q-78 -98 -269 -98q-293 0 -293 211v772h-92z" />
<glyph unicode="v" horiz-adv-x="1103" d="M12 983v246h500l143 -920l111 674h-107v246h437v-246h-107l-186 -983h-477l-234 983h-80z" />
<glyph unicode="w" horiz-adv-x="1810" d="M12 983v246h500l143 -899l107 653h-92v246h485l160 -899l110 653h-106v246h485v-246h-155l-187 -983h-409l-135 676l-142 -676h-450l-234 983h-80z" />
<glyph unicode="x" horiz-adv-x="1081" d="M41 0l330 541l-205 442h-107v246h435l127 -277l167 277h254v-246h-155l-152 -262l303 -721h-426l-137 303l-180 -303h-254z" />
<glyph unicode="y" horiz-adv-x="1263" d="M8 983v246h504l221 -932l156 686h-96v246h462v-246h-108l-254 -1106q-78 -287 -363 -287q-313 0 -313 322h262q0 -86 58 -86q55 0 73 68l62 188h-271l-309 901h-84z" />
<glyph unicode="z" horiz-adv-x="1003" d="M47 0v236l426 768h-252v-185h-174v410h899v-164l-446 -850h272v195h174v-410h-899z" />
<glyph unicode="{" horiz-adv-x="593" d="M53 815l162 264q-84 360 0 570q86 209 313 192v-84q-125 2 -192.5 -147.5t18.5 -530.5l-161 -260l163 -264q-88 -268 -20 -477q68 -199 192 -207v-96q-227 -4 -313 250q-84 256 0 538z" />
<glyph unicode="|" horiz-adv-x="395" d="M125 -410v2329h135v-2329h-135z" />
<glyph unicode="}" horiz-adv-x="593" d="M66 -131q125 -2 192.5 147.5t-18.5 536.5l161 260l-163 264q88 262 20 469q-68 201 -192 209v96q227 4 311 -252q86 -246 2 -530l162 -252l-162 -264q84 -375 -2 -576q-84 -209 -311 -192v84z" />
<glyph unicode="~" horiz-adv-x="2895" d="M127 0v600h2v96h137v58h-37v180h37v63h-37v76h899v-94q-14 27 -49 27q-94 0 -94 -158q0 -156 98 -156q31 0 64 39v-35h49v377h766v-53h70v53h737v-1073h-2642zM129 754v180h39v-180h-39zM129 997v76h39v-76h-39zM186 160h123v86h-45v301h-78v-387zM289 823 q0 -131 94 -131q29 0 51 17q0 -47 -57 -47h-31v-62h43q113 12 113 145v252h-68v-186q0 -53 -41 -53q-39 0 -39 53v186h-65v-174zM340 160h76v73h26v-73h82v141l-53 246h-84l-47 -246v-141zM416 291v39l12 102h4l10 -102v-39h-26zM524 600h68v115q14 -25 49 -25q94 0 94 156 t-98 155q-29 0 -64 -40v36h-49v-397zM555 160h78v170h22v-170h84v155l-30 43v7l30 41v100l-22 41h-162v-387zM586 793v102q12 31 43 31q43 0 43 -78q0 -88 -45 -88q-29 0 -41 33zM633 393v84h22v-84h-22zM750 844q0 -156 110 -156q113 0 113 156q0 160 -113 160 q-111 0 -110 -160zM770 160h78v73h24v-73h78v141l-49 246h-84l-47 -246v-141zM817 844q0 84 43 84q45 0 45 -84q0 -82 -45 -82q-43 0 -43 82zM848 291v39l10 102h6l8 -102v-39h-24zM983 160h162l22 43v127l-16 28v7l16 28v113l-22 41h-162v-387zM1049 846q0 88 45 88 q27 0 39 -33v-104q-12 -29 -41 -29q-43 0 -43 78zM1063 233v97h22v-97h-22zM1063 393v84h22v-84h-22zM1200 160h80v387h-80v-387zM1214 774q2 -86 93 -86q45 0 70.5 26.5t25.5 82.5h-31q-6 -39 -51 -39q-41 0 -41 28q0 37 41 37h20v37h-20q-41 0 -41 35q0 33 41 33 q35 0 51 -41h31v110h-31v-47q-23 53 -67 54q-88 0 -88 -89q0 -55 45 -73q-47 -18 -48 -68zM1311 160h131v86h-53v80h53v67h-53v72h53v82h-131v-387zM1425 696h91v58h-29v133q0 41 29 41q12 0 24 -13l23 68q-16 14 -35 16q-43 0 -64 -49v47h-39v-301zM1530 160h80v159h49v68 h-49v78h49v82h-129v-387zM1544 696h144v58h-39v125q0 47 39 47q31 0 30 -47v-183h105v58h-39v125q0 45 39 45q31 0 30 -45v-183h68v193q0 111 -96 110q-49 0 -64 -49q-18 49 -57 49q-35 0 -55 -49v47h-66v-243h-39v-58zM1692 203l20 -43h137l25 43v303l-23 41h-139l-20 -41 v-303zM1769 233v244h23v-244h-23zM1905 160h65v250h6l19 -250h119v387h-66v-250h-6l-23 250h-114v-387zM1931 934h31v-238h70v301h-101v-63zM2048 844q0 -154 104 -154q74 0 93 119h-33q-6 -47 -51 -47q-47 0 -47 82q0 84 47 84t51 -56h33v121h-33v-43q-25 53 -62 54 q-102 0 -102 -160zM2136 465h43v-305h80v305h43v82h-166v-82zM2324 203l23 -43h133l23 43v147l-27 43l-72 17v67h21v-49h78v78l-21 41h-135l-23 -41v-135l25 -41l76 -19v-78h-21v58h-80v-88z" />
<glyph unicode="&#xa1;" horiz-adv-x="632" d="M121 930v704h389v-706l-123 -469h-143zM129 131v88q0 137 127 137h121q129 0 129 -141v-84q0 -137 -131 -137h-119q-127 0 -127 137z" />
<glyph unicode="&#xa2;" horiz-adv-x="1245" d="M86 650v402q0 177 479 177h132q473 0 473 -180v-147h-479v138q0 42 -65 41q-61 0 -61 -41v-378q0 -42 61 -41q64 0 65 41v144h479v-156q0 -177 -479 -177h-133q-472 0 -472 177zM599 132v1424h37v-1424h-37z" />
<glyph unicode="&#xa3;" horiz-adv-x="1363" d="M88 0q-12 188 150 301l63 477h-104l36 246h105l51 328q43 287 473 286h41q332 0 316 -286v-123h-285v106q2 68 -51 68q-51 0 -66 -68l-49 -311h195l-37 -246h-195l-55 -407q141 -27 242 -97q102 -72 102 78v189h227v-209q2 -332 -231 -332q-246 0 -436 70 q-201 72 -332 -70h-160z" />
<glyph unicode="&#xa5;" horiz-adv-x="1486" d="M0 1401v237h719v-237h-150l179 -348l61 -158l53 158l160 348h-133v237h522v-237h-141l-336 -758v-407h117v-236h-660v236h113v407l-412 758h-92zM232 364v115h1036v-115h-1036zM232 624v115h1036v-115h-1036z" />
<glyph unicode="&#xa6;" horiz-adv-x="395" d="M125 352h135v-762h-135v762zM125 1196v723h135v-723h-135z" />
<glyph unicode="&#xa7;" horiz-adv-x="1187" d="M117 293v127h368v-113q0 -68 99 -67q96 0 96 153q0 55 -51 88h-203q-309 0 -309 293v127q4 121 143 184q-141 80 -141 230v57q0 266 346 266h297q309 0 309 -272v-111h-369q0 160 -98 160q-96 0 -96 -115t133 -143h121q309 0 309 -272v-117q-2 -129 -133 -201 q131 -80 131 -223v-57q0 -287 -346 -287h-297q-309 0 -309 293zM508 819q0 -111 88 -110q84 0 84 110q0 111 -84 111q-88 0 -88 -111z" />
<glyph unicode="&#xa8;" horiz-adv-x="886" d="M123 1423v97q0 74 63 73h121q66 0 66 -69v-101q0 -72 -66 -71h-119q-66 0 -65 71zM512 1423v97q0 74 63 73h121q66 0 66 -69v-101q0 -72 -66 -71h-118q-66 0 -66 71z" />
<glyph unicode="&#xa9;" horiz-adv-x="1835" d="M88 866q0 348 241.5 596t592.5 248q350 0 597.5 -248t247.5 -596q0 -352 -247.5 -593.5t-597.5 -241.5t-592 241.5t-242 593.5zM180 866q0 -315 213 -528q219 -213 527 -213q315 0 528 213t213 528q0 311 -213 525q-213 215 -528 215q-311 0 -527 -215 q-213 -214 -213 -525zM592 639v424q0 186 278 186h78q274 0 275 -190v-92h-279v84q0 43 -37 43t-37 -43v-400q0 -43 37 -43t37 43v90h279v-102q0 -186 -279 -186h-78q-274 0 -274 186z" />
<glyph unicode="&#xaa;" horiz-adv-x="935" d="M100 750v706q0 182 258 182q113 0 174 -49v49h287v-1030h-149q-86 0 -119 51q-70 -51 -193 -51q-258 0 -258 142zM391 846q0 -33 70 -33t71 27v612q-4 23 -73 23q-68 0 -68 -27v-602z" />
<glyph unicode="&#xab;" horiz-adv-x="962" d="M59 770v98l453 451v-160l-340 -340l340 -340v-162zM408 770v98l452 451v-160l-340 -340l340 -340v-162z" />
<glyph unicode="&#xac;" horiz-adv-x="1175" d="M125 709v221h979v-443h-186v222h-793z" />
<glyph unicode="&#xad;" horiz-adv-x="845" d="M125 709v221h594v-221h-594z" />
<glyph unicode="&#xae;" horiz-adv-x="1298" d="M41 1124q0 258 174 432q174 180 430 181q252 0 430 -181q180 -178 180 -432t-180 -428q-174 -174 -430 -174t-430 174t-174 428zM162 1122q0 -203 139 -342q137 -137 344 -137q205 0 342 137.5t137 341.5q0 207 -137 344q-139 141 -342 142q-207 0 -344 -142 q-139 -139 -139 -344zM367 819v94h45v469h-45v97h360q119 0 119 -84v-170q0 -66 -74 -76q74 -10 74 -76v-158q0 -14 14 -14t14 14v152h54v-166q0 -82 -80 -82h-92q-84 0 -84 82v180q0 23 -23 23h-63v-191h43v-94h-262zM586 1194h63q23 0 23 23v139q0 27 -23 26h-63v-188z " />
<glyph unicode="&#xaf;" horiz-adv-x="638" d="M23 1393v131h593v-131h-593z" />
<glyph unicode="&#xb1;" horiz-adv-x="1007" d="M53 709v221h340v340h221v-340h340v-221h-340v-340h-221v340h-340zM195 47v221h594v-221h-594z" />
<glyph unicode="&#xb2;" horiz-adv-x="935" d="M139 608v320q6 244 205 307l123 41q61 18 61 61v88q0 45 -106 45q-111 0 -111 -45v-135h-159v166q0 182 317 182q324 0 324 -186v-168q0 -162 -203 -231l-135 -54q-129 -37 -129 -155v-60q63 57 135 58q45 0 84 -27q37 -25 59 -24q27 0 27 45v127h162v-148 q0 -207 -154 -207q-150 0 -238 45q-14 4 -26.5 8.5t-24.5 4.5q-43 0 -80 -58h-131z" />
<glyph unicode="&#xb3;" horiz-adv-x="968" d="M152 791v165h161v-135q0 -45 111 -45q104 0 104 45v88q0 135 -57 135h-127v156h127q57 0 57 137v88q0 45 -104 45q-111 0 -111 -45v-135h-161v166q0 182 317 182q326 0 326 -186v-168q0 -121 -115 -162q115 -35 115 -159v-168q0 -186 -326 -187q-317 0 -317 183z" />
<glyph unicode="&#xb4;" horiz-adv-x="749" d="M82 1366l213 205h412l-453 -205h-172z" />
<glyph unicode="&#xb6;" horiz-adv-x="1073" d="M47 1331q0 307 281 307h673v-237h-116v-1165h116v-236h-284v1401h-178v-1401h-281v236h113v788h-43q-281 0 -281 307z" />
<glyph unicode="&#xb7;" horiz-adv-x="620" d="M121 770v84q0 141 129 141h120q127 0 127 -137v-88q0 -137 -127 -137h-118q-131 0 -131 137z" />
<glyph unicode="&#xb8;" horiz-adv-x="636" d="M121 -264h155v-82q0 -27 39 -27t39 27v184q0 25 -39 25h-88v162h88v-76q197 2 197 -103v-198q0 -109 -158 -109h-80q-154 0 -153 111v86z" />
<glyph unicode="&#xb9;" horiz-adv-x="749" d="M82 608v164h108v594h-108v125q178 0 182 147h219v-866h103v-164h-504z" />
<glyph unicode="&#xba;" horiz-adv-x="968" d="M131 795v657q0 186 279 186h145q274 0 274 -190v-653q0 -186 -276 -187h-145q-276 0 -277 187zM420 805q0 -33 61 -33t62 33v635q0 33 -62 33q-61 0 -61 -33v-635z" />
<glyph unicode="&#xbb;" horiz-adv-x="985" d="M125 315v160l340 340l-340 340v162l453 -453v-98zM473 315v160l340 340l-340 340v162l453 -453v-98z" />
<glyph unicode="&#xbc;" horiz-adv-x="2076" d="M160 608v164h108v594h-108v125q178 0 182 147h219v-866h103v-164h-504zM436 0l1059 1638h104l-1058 -1638h-105zM1206 279v172l445 579h270v-166h-72v-420h76v-165h-76v-115h72v-164h-432v164h72v115h-355zM1366 444h195v252z" />
<glyph unicode="&#xbd;" horiz-adv-x="2217" d="M178 608v164h109v594h-109v125q178 0 182 147h220v-866h102v-164h-504zM467 0l1059 1638h104l-1059 -1638h-104zM1374 0v319q6 244 205 308l123 41q61 18 61 61v88q0 45 -106 45q-111 0 -111 -45v-135h-160v166q0 182 318 182q324 0 324 -186v-168q0 -162 -203 -232 l-135 -53q-129 -37 -129 -155v-60q63 57 135 57q45 0 84 -26q37 -25 59 -25q27 0 27 45v127h162v-147q0 -207 -154 -207q-150 0 -238 45q-14 4 -26.5 8t-24.5 4q-43 0 -80 -57h-131z" />
<glyph unicode="&#xbe;" horiz-adv-x="2107" d="M106 791v165h162v-135q0 -45 111 -45q104 0 104 45v88q0 135 -57 135h-127v156h127q57 0 57 137v88q0 45 -104 45q-111 0 -111 -45v-135h-162v166q0 182 318 182q326 0 326 -186v-168q0 -121 -115 -162q115 -35 115 -159v-168q0 -186 -326 -187q-317 0 -318 183zM451 0 l1058 1638h105l-1059 -1638h-104zM1253 279v172l445 579h270v-166h-72v-420h76v-165h-76v-115h72v-164h-432v164h72v115h-355zM1413 444h195v252z" />
<glyph unicode="&#xbf;" horiz-adv-x="1153" d="M84 283v209q0 227 211 356q242 88 242 295v28h266v-249q0 -221 -262 -336q-68 -20 -68 -101v-161q0 -88 186 -88q193 0 193 88v202h225v-250q0 -281 -491 -280q-502 0 -502 287zM483 1411v88q0 137 127 137h119q131 0 131 -137v-84q0 -141 -129 -141h-121 q-127 0 -127 137z" />
<glyph unicode="&#xc0;" horiz-adv-x="1472" d="M31 0v238h162l296 1400h478l342 -1400h133v-238h-656v238h99l-33 172h-360l-35 -172h96v-238h-522zM424 1981h412l213 -205h-172zM535 614h278l-135 736z" />
<glyph unicode="&#xc1;" horiz-adv-x="1472" d="M31 0v238h162l296 1400h478l342 -1400h133v-238h-656v238h99l-33 172h-360l-35 -172h96v-238h-522zM424 1776l213 205h412l-453 -205h-172zM535 614h278l-135 736z" />
<glyph unicode="&#xc2;" horiz-adv-x="1472" d="M31 0v238h162l296 1400h478l342 -1400h133v-238h-656v238h99l-33 172h-360l-35 -172h96v-238h-522zM434 1776l207 205h188l205 -205h-260l-88 90l-90 -90h-162zM535 614h278l-135 736z" />
<glyph unicode="&#xc3;" horiz-adv-x="1472" d="M31 0v238h162l296 1400h478l342 -1400h133v-238h-656v238h99l-33 172h-360l-35 -172h96v-238h-522zM441 1776v113q0 98 147 98q96 0 180 -47t129 -47t45 55v33h88v-113q0 -100 -118 -100q-127 0 -211 47t-125 47q-43 0 -43 -53v-33h-92zM535 614h278l-135 736z" />
<glyph unicode="&#xc4;" horiz-adv-x="1472" d="M31 0v238h162l296 1400h478l342 -1400h133v-238h-656v238h99l-33 172h-360l-35 -172h96v-238h-522zM416 1833v97q0 74 63 73h121q66 0 66 -69v-101q0 -72 -66 -71h-119q-66 0 -65 71zM535 614h278l-135 736zM805 1833v97q0 74 63 73h121q66 0 66 -69v-101q0 -72 -66 -71 h-118q-66 0 -66 71z" />
<glyph unicode="&#xc5;" horiz-adv-x="1472" d="M31 0v238h162l296 1400h478l342 -1400h133v-238h-656v238h99l-33 172h-360l-35 -172h96v-238h-522zM535 614h278l-135 736zM559 1887q0 74 51.5 126t124.5 52q74 0 126.5 -52.5t52.5 -125.5q0 -74 -52.5 -125.5t-126.5 -51.5t-125 51.5t-51 125.5zM615 1887 q0 -51 34.5 -86t85.5 -35t86 34.5t35 86.5q0 51 -34.5 85.5t-86.5 34.5q-51 0 -85.5 -34.5t-34.5 -85.5z" />
<glyph unicode="&#xc6;" horiz-adv-x="2142" d="M88 0v238h141l471 1163h-163v237h1491v-530h-226v293h-428v-471h137v239h172v-690h-172v230h-137v-473h428v305h226v-541h-1197v236h113v473h-246l-184 -471h96v-238h-522zM786 930h158v444l-53 -178z" />
<glyph unicode="&#xc7;" horiz-adv-x="1253" d="M102 287v1065q0 287 430 286q307 0 377 -137v137h228v-530h-226v223q0 68 -190 68q-188 0 -189 -68v-1024q0 -68 189 -67q190 0 190 67v234h226v-254q0 -287 -580 -287q-455 0 -455 287zM430 -264h155v-82q0 -27 39 -27t39 27v184q0 25 -39 25h-88v162h88v-76 q197 2 197 -103v-198q0 -109 -158 -109h-80q-154 0 -153 111v86z" />
<glyph unicode="&#xc8;" horiz-adv-x="1370" d="M102 0v236h113v1165h-113v237h1186v-530h-225v293h-418v-471h137v239h172v-690h-172v230h-137v-473h428v305h225v-541h-1196zM373 1981h412l213 -205h-172z" />
<glyph unicode="&#xc9;" horiz-adv-x="1370" d="M102 0v236h113v1165h-113v237h1186v-530h-225v293h-418v-471h137v239h172v-690h-172v230h-137v-473h428v305h225v-541h-1196zM373 1776l213 205h412l-453 -205h-172z" />
<glyph unicode="&#xca;" horiz-adv-x="1370" d="M102 0v236h113v1165h-113v237h1186v-530h-225v293h-418v-471h137v239h172v-690h-172v230h-137v-473h428v305h225v-541h-1196zM383 1776l207 205h188l205 -205h-260l-88 90l-90 -90h-162z" />
<glyph unicode="&#xcb;" horiz-adv-x="1370" d="M102 0v236h113v1165h-113v237h1186v-530h-225v293h-418v-471h137v239h172v-690h-172v230h-137v-473h428v305h225v-541h-1196zM365 1833v97q0 74 63 73h121q66 0 66 -69v-101q0 -72 -66 -71h-119q-66 0 -65 71zM754 1833v97q0 74 63 73h121q66 0 66 -69v-101 q0 -72 -66 -71h-118q-66 0 -66 71z" />
<glyph unicode="&#xcc;" horiz-adv-x="843" d="M102 0v236h113v1165h-113v237h660v-237h-117v-1165h117v-236h-660zM109 1981h412l213 -205h-172z" />
<glyph unicode="&#xcd;" horiz-adv-x="843" d="M102 0v236h113v1165h-113v237h660v-237h-117v-1165h117v-236h-660zM109 1776l213 205h412l-453 -205h-172z" />
<glyph unicode="&#xce;" horiz-adv-x="843" d="M102 0v236h113v1165h-113v237h660v-237h-117v-1165h117v-236h-660zM119 1776l207 205h188l205 -205h-260l-88 90l-90 -90h-162z" />
<glyph unicode="&#xcf;" horiz-adv-x="843" d="M102 0v236h113v1165h-113v237h660v-237h-117v-1165h117v-236h-660zM105 1833v97q0 74 63 73h121q66 0 66 -69v-101q0 -72 -66 -71h-119q-66 0 -65 71zM494 1833v97q0 74 63 73h121q66 0 66 -69v-101q0 -72 -66 -71h-118q-66 0 -66 71z" />
<glyph unicode="&#xd0;" horiz-adv-x="1417" d="M133 0v236h113v1165h-113v237h895q295 0 295 -211v-1216q0 -211 -295 -211h-895zM156 709v221h594v-221h-594zM676 236h158q57 0 57 69v1028q0 68 -57 68h-158v-1165z" />
<glyph unicode="&#xd1;" horiz-adv-x="1394" d="M102 0v236h113v1165h-113v237h410l563 -868v631h-131v237h432v-237h-116v-1401h-277l-584 938v-702h117v-236h-414zM402 1776v113q0 98 147 98q96 0 180 -47t129 -47t45 55v33h88v-113q0 -100 -118 -100q-127 0 -211 47t-125 47q-43 0 -43 -53v-33h-92z" />
<glyph unicode="&#xd2;" horiz-adv-x="1280" d="M82 287v1067q0 287 430 286h272q424 0 424 -292v-1061q0 -287 -430 -287h-272q-424 0 -424 287zM328 1981h412l213 -205h-172zM512 303q0 -68 133 -67q133 0 133 67v1030q0 68 -133 68t-133 -68v-1030z" />
<glyph unicode="&#xd3;" horiz-adv-x="1280" d="M82 287v1067q0 287 430 286h272q424 0 424 -292v-1061q0 -287 -430 -287h-272q-424 0 -424 287zM328 1776l213 205h412l-453 -205h-172zM512 303q0 -68 133 -67q133 0 133 67v1030q0 68 -133 68t-133 -68v-1030z" />
<glyph unicode="&#xd4;" horiz-adv-x="1280" d="M82 287v1067q0 287 430 286h272q424 0 424 -292v-1061q0 -287 -430 -287h-272q-424 0 -424 287zM338 1776l207 205h188l205 -205h-260l-88 90l-90 -90h-162zM512 303q0 -68 133 -67q133 0 133 67v1030q0 68 -133 68t-133 -68v-1030z" />
<glyph unicode="&#xd5;" horiz-adv-x="1280" d="M82 287v1067q0 287 430 286h272q424 0 424 -292v-1061q0 -287 -430 -287h-272q-424 0 -424 287zM345 1776v113q0 98 147 98q96 0 180 -47t129 -47t45 55v33h88v-113q0 -100 -118 -100q-127 0 -211 47t-125 47q-43 0 -43 -53v-33h-92zM512 303q0 -68 133 -67q133 0 133 67 v1030q0 68 -133 68t-133 -68v-1030z" />
<glyph unicode="&#xd6;" horiz-adv-x="1280" d="M82 287v1067q0 287 430 286h272q424 0 424 -292v-1061q0 -287 -430 -287h-272q-424 0 -424 287zM320 1833v97q0 74 63 73h121q66 0 66 -69v-101q0 -72 -66 -71h-119q-66 0 -65 71zM512 303q0 -68 133 -67q133 0 133 67v1030q0 68 -133 68t-133 -68v-1030zM709 1833v97 q0 74 63 73h121q66 0 66 -69v-101q0 -72 -66 -71h-118q-66 0 -66 71z" />
<glyph unicode="&#xd7;" horiz-adv-x="1007" d="M106 580l242 239l-242 240l158 158l240 -242l239 242l158 -158l-242 -240l242 -239l-158 -158l-239 242l-240 -242z" />
<glyph unicode="&#xd8;" horiz-adv-x="1370" d="M113 287v1067q0 287 430 286h272q82 0 150 -12l57 127h129l-72 -160q160 -72 160 -247v-1061q0 -287 -430 -287h-272q-47 0 -90.5 3t-77.5 11l-50 -108h-131l66 145q-141 70 -141 236zM543 303q0 -67 133 -67t133 67v690l-266 -592v-98zM543 692l266 590v51q0 68 -133 68 t-133 -68v-641z" />
<glyph unicode="&#xd9;" horiz-adv-x="1550" d="M102 1401v237h678v-237h-131v-1036q0 -129 215 -129t215 129v1036h-114v237h503v-237h-122v-1114q0 -287 -431 -287h-272q-424 0 -424 287v1114h-117zM463 1981h412l213 -205h-172z" />
<glyph unicode="&#xda;" horiz-adv-x="1550" d="M102 1401v237h678v-237h-131v-1036q0 -129 215 -129t215 129v1036h-114v237h503v-237h-122v-1114q0 -287 -431 -287h-272q-424 0 -424 287v1114h-117zM463 1776l213 205h412l-453 -205h-172z" />
<glyph unicode="&#xdb;" horiz-adv-x="1550" d="M102 1401v237h678v-237h-131v-1036q0 -129 215 -129t215 129v1036h-114v237h503v-237h-122v-1114q0 -287 -431 -287h-272q-424 0 -424 287v1114h-117zM473 1776l207 205h188l205 -205h-260l-88 90l-90 -90h-162z" />
<glyph unicode="&#xdc;" horiz-adv-x="1550" d="M102 1401v237h678v-237h-131v-1036q0 -129 215 -129t215 129v1036h-114v237h503v-237h-122v-1114q0 -287 -431 -287h-272q-424 0 -424 287v1114h-117zM455 1833v97q0 74 63 73h121q66 0 66 -69v-101q0 -72 -66 -71h-119q-66 0 -65 71zM844 1833v97q0 74 63 73h121 q66 0 66 -69v-101q0 -72 -66 -71h-118q-66 0 -66 71z" />
<glyph unicode="&#xdd;" horiz-adv-x="1411" d="M0 1401v237h719v-237h-150l179 -348l61 -158l53 158l160 348h-133v237h522v-237h-141l-336 -758v-407h117v-236h-660v236h113v407l-412 758h-92zM393 1776l213 205h412l-453 -205h-172z" />
<glyph unicode="&#xde;" horiz-adv-x="1368" d="M102 0v236h113v1165h-113v237h660v-237h-117v-105h352q295 0 295 -211v-452q0 -281 -295 -281h-352v-116h117v-236h-660zM645 588h158q57 0 57 59v344q0 68 -57 68h-158v-471z" />
<glyph unicode="&#xdf;" horiz-adv-x="1431" d="M88 0v236h113v1107q0 276 569 295q553 0 553 -286v-271q0 -223 -242 -262q242 -33 242 -262v-270q0 -287 -440 -287h-156v240h92q115 0 115 104v270q0 94 -109 95h-98v221h98q109 0 109 127v254q0 88 -158 88q-139 0 -145 -80v-1319h-543z" />
<glyph unicode="&#xe0;" horiz-adv-x="1153" d="M82 211v737q0 281 295 281q197 0 250 -99v99h430v-1229h-226q-141 0 -184 94q-86 -94 -270 -94q-295 0 -295 211zM264 1571h412l213 -205h-172zM514 369q0 -68 57 -68q53 0 56 57v584q-2 51 -58 51q-55 0 -55 -59v-565z" />
<glyph unicode="&#xe1;" horiz-adv-x="1153" d="M82 211v737q0 281 295 281q197 0 250 -99v99h430v-1229h-226q-141 0 -184 94q-86 -94 -270 -94q-295 0 -295 211zM264 1366l213 205h412l-453 -205h-172zM514 369q0 -68 57 -68q53 0 56 57v584q-2 51 -58 51q-55 0 -55 -59v-565z" />
<glyph unicode="&#xe2;" horiz-adv-x="1153" d="M82 211v737q0 281 295 281q197 0 250 -99v99h430v-1229h-226q-141 0 -184 94q-86 -94 -270 -94q-295 0 -295 211zM275 1366l207 205h188l205 -205h-260l-88 90l-90 -90h-162zM514 369q0 -68 57 -68q53 0 56 57v584q-2 51 -58 51q-55 0 -55 -59v-565z" />
<glyph unicode="&#xe3;" horiz-adv-x="1153" d="M82 211v737q0 281 295 281q197 0 250 -99v99h430v-1229h-226q-141 0 -184 94q-86 -94 -270 -94q-295 0 -295 211zM281 1366v113q0 98 147 98q96 0 180 -47t129 -47t45 55v33h88v-113q0 -100 -118 -100q-127 0 -211 47t-125 47q-43 0 -43 -53v-33h-92zM514 369 q0 -68 57 -68q53 0 56 57v584q-2 51 -58 51q-55 0 -55 -59v-565z" />
<glyph unicode="&#xe4;" horiz-adv-x="1153" d="M82 211v737q0 281 295 281q197 0 250 -99v99h430v-1229h-226q-141 0 -184 94q-86 -94 -270 -94q-295 0 -295 211zM256 1423v97q0 74 63 73h121q66 0 66 -69v-101q0 -72 -66 -71h-119q-66 0 -65 71zM514 369q0 -68 57 -68q53 0 56 57v584q-2 51 -58 51q-55 0 -55 -59v-565 zM645 1423v97q0 74 63 73h121q66 0 66 -69v-101q0 -72 -66 -71h-118q-66 0 -66 71z" />
<glyph unicode="&#xe5;" horiz-adv-x="1153" d="M82 211v737q0 281 295 281q197 0 250 -99v99h430v-1229h-226q-141 0 -184 94q-86 -94 -270 -94q-295 0 -295 211zM399 1477q0 74 51.5 126t124.5 52q74 0 126.5 -52.5t52.5 -125.5q0 -74 -52.5 -125.5t-126.5 -51.5t-125 51.5t-51 125.5zM455 1477q0 -51 34.5 -86 t85.5 -35t86 34.5t35 86.5q0 51 -34.5 85.5t-86.5 34.5q-51 0 -85.5 -34.5t-34.5 -85.5zM514 369q0 -68 57 -68q53 0 56 57v584q-2 51 -58 51q-55 0 -55 -59v-565z" />
<glyph unicode="&#xe6;" horiz-adv-x="1654" d="M121 211v737q0 281 295 281q197 0 250 -99v99h270l2 -55q70 55 174 55q424 0 424 -293v-379h-543v-250q0 -68 76 -67q78 0 78 67v187h389v-207q0 -287 -430 -287q-207 0 -283 94q-94 -94 -272 -94q-430 0 -430 211zM553 369q0 -68 57 -68q53 0 56 57v584q-2 51 -58 51 q-55 0 -55 -59v-565zM993 758h113v164q0 68 -57 67q-55 0 -56 -67v-164z" />
<glyph unicode="&#xe7;" horiz-adv-x="1167" d="M123 287v655q0 287 430 287h119q424 0 424 -293v-238h-430v224q0 68 -58 67q-55 0 -55 -67v-615q0 -68 55 -67q57 0 58 67v234h430v-254q0 -287 -430 -287h-119q-424 0 -424 287zM387 -264h155v-82q0 -27 39 -27t39 27v184q0 25 -39 25h-88v162h88v-76q197 2 197 -103 v-198q0 -109 -158 -109h-80q-154 0 -153 111v86z" />
<glyph unicode="&#xe8;" d="M82 287v655q0 287 430 287h119q424 0 424 -293v-379h-543v-250q0 -68 76 -67q78 0 78 67v187h389v-207q0 -287 -430 -287h-119q-424 0 -424 287zM250 1571h412l213 -205h-172zM512 758h113v164q0 68 -58 67q-55 0 -55 -67v-164z" />
<glyph unicode="&#xe9;" d="M82 287v655q0 287 430 287h119q424 0 424 -293v-379h-543v-250q0 -68 76 -67q78 0 78 67v187h389v-207q0 -287 -430 -287h-119q-424 0 -424 287zM250 1366l213 205h412l-453 -205h-172zM512 758h113v164q0 68 -58 67q-55 0 -55 -67v-164z" />
<glyph unicode="&#xea;" d="M82 287v655q0 287 430 287h119q424 0 424 -293v-379h-543v-250q0 -68 76 -67q78 0 78 67v187h389v-207q0 -287 -430 -287h-119q-424 0 -424 287zM260 1366l207 205h188l205 -205h-260l-88 90l-90 -90h-162zM512 758h113v164q0 68 -58 67q-55 0 -55 -67v-164z" />
<glyph unicode="&#xeb;" d="M82 287v655q0 287 430 287h119q424 0 424 -293v-379h-543v-250q0 -68 76 -67q78 0 78 67v187h389v-207q0 -287 -430 -287h-119q-424 0 -424 287zM244 1423v97q0 74 63 73h121q66 0 66 -69v-101q0 -72 -66 -71h-119q-66 0 -65 71zM512 758h113v164q0 68 -58 67 q-55 0 -55 -67v-164zM633 1423v97q0 74 63 73h121q66 0 66 -69v-101q0 -72 -66 -71h-118q-66 0 -66 71z" />
<glyph unicode="&#xec;" horiz-adv-x="636" d="M8 1571h412l213 -205h-172zM10 983v246h543v-1229h-430v983h-113z" />
<glyph unicode="&#xed;" horiz-adv-x="636" d="M8 1366l213 205h412l-453 -205h-172zM10 983v246h543v-1229h-430v983h-113z" />
<glyph unicode="&#xee;" horiz-adv-x="636" d="M10 983v246h543v-1229h-430v983h-113zM19 1366l207 205h188l205 -205h-260l-88 90l-90 -90h-162z" />
<glyph unicode="&#xef;" horiz-adv-x="636" d="M2 1423v97q0 74 63 73h121q66 0 66 -69v-101q0 -72 -66 -71h-119q-66 0 -65 71zM10 983v246h543v-1229h-430v983h-113zM391 1423v97q0 74 63 73h121q66 0 66 -69v-101q0 -72 -66 -71h-118q-66 0 -66 71z" />
<glyph unicode="&#xf0;" horiz-adv-x="1269" d="M156 287q0 -287 524 -287q510 0 510 287v1065q0 287 -528 286q-502 0 -506 -280v-250h225v223q0 68 203 68q219 0 219 -68v-401q-63 61 -250 61q-393 0 -397 -262v-442zM524 307v389q5 74 146 74q133 0 133 -74v-389q0 -68 -149 -67q-129 0 -130 67z" />
<glyph unicode="&#xf1;" horiz-adv-x="1175" d="M10 983v246h543v-82q51 82 250 82q293 0 293 -211v-1018h-430v860q0 68 -58 68q-55 0 -55 -68v-860h-430v983h-113zM293 1366v113q0 98 147 98q96 0 180 -47t129 -47t45 55v33h88v-113q0 -100 -118 -100q-127 0 -211 47t-125 47q-43 0 -43 -53v-33h-92z" />
<glyph unicode="&#xf2;" d="M82 287v655q0 287 430 287h119q424 0 424 -293v-649q0 -287 -430 -287h-119q-424 0 -424 287zM250 1571h412l213 -205h-172zM512 303q0 -68 55 -67q57 0 58 67v619q0 68 -58 67q-55 0 -55 -67v-619z" />
<glyph unicode="&#xf3;" d="M82 287v655q0 287 430 287h119q424 0 424 -293v-649q0 -287 -430 -287h-119q-424 0 -424 287zM250 1366l213 205h412l-453 -205h-172zM512 303q0 -68 55 -67q57 0 58 67v619q0 68 -58 67q-55 0 -55 -67v-619z" />
<glyph unicode="&#xf4;" d="M82 287v655q0 287 430 287h119q424 0 424 -293v-649q0 -287 -430 -287h-119q-424 0 -424 287zM260 1366l207 205h188l205 -205h-260l-88 90l-90 -90h-162zM512 303q0 -68 55 -67q57 0 58 67v619q0 68 -58 67q-55 0 -55 -67v-619z" />
<glyph unicode="&#xf5;" d="M82 287v655q0 287 430 287h119q424 0 424 -293v-649q0 -287 -430 -287h-119q-424 0 -424 287zM269 1366v113q0 98 147 98q96 0 180 -47t129 -47t45 55v33h88v-113q0 -100 -118 -100q-127 0 -211 47t-125 47q-43 0 -43 -53v-33h-92zM512 303q0 -68 55 -67q57 0 58 67v619 q0 68 -58 67q-55 0 -55 -67v-619z" />
<glyph unicode="&#xf6;" d="M82 287v655q0 287 430 287h119q424 0 424 -293v-649q0 -287 -430 -287h-119q-424 0 -424 287zM244 1423v97q0 74 63 73h121q66 0 66 -69v-101q0 -72 -66 -71h-119q-66 0 -65 71zM512 303q0 -68 55 -67q57 0 58 67v619q0 68 -58 67q-55 0 -55 -67v-619zM633 1423v97 q0 74 63 73h121q66 0 66 -69v-101q0 -72 -66 -71h-118q-66 0 -66 71z" />
<glyph unicode="&#xf7;" horiz-adv-x="995" d="M125 709v221h754v-221h-754zM385 432v55q0 90 84 91h78q82 0 82 -89v-57q0 -88 -82 -88h-78q-84 0 -84 88zM385 1128v54q0 92 84 92h78q82 0 82 -90v-56q0 -90 -82 -90h-78q-84 0 -84 90z" />
<glyph unicode="&#xf8;" d="M27 -74l118 180q-63 70 -63 181v655q0 287 430 287h119q135 0 227 -31l62 92h139l-96 -145q92 -74 92 -209v-649q0 -287 -430 -287h-119q-164 0 -264 43l-76 -117h-139zM512 303q0 -67 55 -67q57 0 58 67v324l-113 -172v-152zM512 668l113 172v82q0 68 -58 67 q-55 0 -55 -67v-254z" />
<glyph unicode="&#xf9;" horiz-adv-x="1169" d="M10 983v246h522v-860q0 -68 56 -68q57 0 57 68v860h430v-1229h-225q-143 0 -186 98q-78 -98 -269 -98q-293 0 -293 211v772h-92zM272 1571h412l213 -205h-172z" />
<glyph unicode="&#xfa;" horiz-adv-x="1169" d="M10 983v246h522v-860q0 -68 56 -68q57 0 57 68v860h430v-1229h-225q-143 0 -186 98q-78 -98 -269 -98q-293 0 -293 211v772h-92zM272 1366l213 205h412l-453 -205h-172z" />
<glyph unicode="&#xfb;" horiz-adv-x="1169" d="M10 983v246h522v-860q0 -68 56 -68q57 0 57 68v860h430v-1229h-225q-143 0 -186 98q-78 -98 -269 -98q-293 0 -293 211v772h-92zM283 1366l207 205h188l205 -205h-260l-88 90l-90 -90h-162z" />
<glyph unicode="&#xfc;" horiz-adv-x="1169" d="M10 983v246h522v-860q0 -68 56 -68q57 0 57 68v860h430v-1229h-225q-143 0 -186 98q-78 -98 -269 -98q-293 0 -293 211v772h-92zM264 1423v97q0 74 63 73h121q66 0 66 -69v-101q0 -72 -66 -71h-119q-66 0 -65 71zM653 1423v97q0 74 63 73h121q66 0 66 -69v-101 q0 -72 -66 -71h-118q-66 0 -66 71z" />
<glyph unicode="&#xfd;" horiz-adv-x="1263" d="M8 983v246h504l221 -932l156 686h-96v246h462v-246h-108l-254 -1106q-78 -287 -363 -287q-313 0 -313 322h262q0 -86 58 -86q55 0 73 68l62 188h-271l-309 901h-84zM320 1366l213 205h412l-453 -205h-172z" />
<glyph unicode="&#xfe;" horiz-adv-x="1159" d="M10 -164h103v1557h-103v245h533v-491q51 82 264 82q281 -6 280 -211v-807q0 -207 -280 -211q-217 0 -264 41v-205h75v-246h-608v246zM563 295q0 -59 55 -59q57 0 58 59v606q0 68 -58 68q-55 0 -55 -68v-606z" />
<glyph unicode="&#xff;" horiz-adv-x="1263" d="M8 983v246h504l221 -932l156 686h-96v246h462v-246h-108l-254 -1106q-78 -287 -363 -287q-313 0 -313 322h262q0 -86 58 -86q55 0 73 68l62 188h-271l-309 901h-84zM311 1423v97q0 74 63 73h121q66 0 66 -69v-101q0 -72 -66 -71h-119q-66 0 -65 71zM700 1423v97 q0 74 63 73h121q66 0 66 -69v-101q0 -72 -66 -71h-118q-66 0 -66 71z" />
<glyph unicode="&#x152;" horiz-adv-x="1804" d="M123 287v1067q0 287 430 284h1139v-530h-226v293h-428v-471h138v239h172v-690h-172v230h-138v-473h428v305h226v-541h-1145q-424 0 -424 287zM553 303q0 -68 113 -67q113 0 112 67v1030q0 68 -112 68q-113 0 -113 -68v-1030z" />
<glyph unicode="&#x153;" horiz-adv-x="1589" d="M119 287v655q0 287 430 287q170 0 246 -51q57 51 252 51q424 0 423 -293v-379h-542v-260q6 -57 76 -57q78 0 77 67v187h389v-207q0 -287 -430 -287q-158 0 -247 66q-90 -66 -250 -66q-424 0 -424 287zM549 303q0 -68 55 -67q57 0 58 67v619q0 68 -58 67q-55 0 -55 -67 v-619zM928 758h112v164q0 68 -57 67q-55 0 -55 -67v-164z" />
<glyph unicode="&#x178;" horiz-adv-x="1411" d="M0 1401v237h719v-237h-150l179 -348l61 -158l53 158l160 348h-133v237h522v-237h-141l-336 -758v-407h117v-236h-660v236h113v407l-412 758h-92zM385 1833v97q0 74 63 73h121q66 0 66 -69v-101q0 -72 -66 -71h-119q-66 0 -65 71zM774 1833v97q0 74 63 73h121q66 0 66 -69 v-101q0 -72 -66 -71h-118q-66 0 -66 71z" />
<glyph unicode="&#x2c6;" horiz-adv-x="765" d="M80 1366l207 205h188l205 -205h-260l-88 90l-90 -90h-162z" />
<glyph unicode="&#x2dc;" horiz-adv-x="720" d="M66 1366v113q0 98 147 98q96 0 180 -47t129 -47t45 55v33h88v-113q0 -100 -118 -100q-127 0 -211 47t-125 47q-43 0 -43 -53v-33h-92z" />
<glyph unicode="&#x2000;" horiz-adv-x="1032" />
<glyph unicode="&#x2001;" horiz-adv-x="2065" />
<glyph unicode="&#x2002;" horiz-adv-x="1032" />
<glyph unicode="&#x2003;" horiz-adv-x="2065" />
<glyph unicode="&#x2004;" horiz-adv-x="688" />
<glyph unicode="&#x2005;" horiz-adv-x="516" />
<glyph unicode="&#x2006;" horiz-adv-x="344" />
<glyph unicode="&#x2007;" horiz-adv-x="344" />
<glyph unicode="&#x2008;" horiz-adv-x="258" />
<glyph unicode="&#x2009;" horiz-adv-x="413" />
<glyph unicode="&#x200a;" horiz-adv-x="114" />
<glyph unicode="&#x2010;" horiz-adv-x="845" d="M125 709v221h594v-221h-594z" />
<glyph unicode="&#x2011;" horiz-adv-x="845" d="M125 709v221h594v-221h-594z" />
<glyph unicode="&#x2012;" horiz-adv-x="845" d="M125 709v221h594v-221h-594z" />
<glyph unicode="&#x2013;" horiz-adv-x="1110" d="M125 709v221h858v-221h-858z" />
<glyph unicode="&#x2014;" horiz-adv-x="1550" d="M125 709v221h1298v-221h-1298z" />
<glyph unicode="&#x2018;" horiz-adv-x="579" d="M104 1380q0 256 211 256h86v-71h-79q-86 0 -86 -80h98q147 0 147 -139q0 -141 -129 -142h-121q-127 0 -127 176z" />
<glyph unicode="&#x2019;" horiz-adv-x="577" d="M94 1497q0 141 129 141h121q127 0 127 -176q0 -256 -211 -256h-86v72h80q86 0 86 80h-98q-148 0 -148 139z" />
<glyph unicode="&#x201a;" horiz-adv-x="550" d="M125 219q0 141 129 141h121q127 0 127 -176q0 -256 -211 -256h-86v72h80q86 0 86 80h-98q-148 0 -148 139z" />
<glyph unicode="&#x201c;" horiz-adv-x="1019" d="M115 1380q0 256 211 256h86v-71h-80q-86 0 -86 -80h98q148 0 148 -139q0 -141 -130 -142h-120q-127 0 -127 176zM530 1380q0 256 211 256h86v-71h-79q-86 0 -86 -80h98q147 0 147 -139q0 -141 -129 -142h-121q-127 0 -127 176z" />
<glyph unicode="&#x201d;" horiz-adv-x="1015" d="M109 1497q0 141 129 141h120q127 0 127 -176q0 -256 -211 -256h-86v72h80q86 0 86 80h-98q-147 0 -147 139zM524 1497q0 141 129 141h121q127 0 127 -176q0 -256 -211 -256h-86v72h80q86 0 86 80h-98q-148 0 -148 139z" />
<glyph unicode="&#x201e;" horiz-adv-x="970" d="M125 219q0 141 129 141h121q127 0 127 -176q0 -256 -211 -256h-86v72h80q86 0 86 80h-98q-148 0 -148 139zM540 219q0 141 129 141h121q127 0 127 -176q0 -256 -211 -256h-86v72h80q86 0 86 80h-98q-148 0 -148 139z" />
<glyph unicode="&#x2022;" horiz-adv-x="870" d="M123 594v412q0 141 129 141h366q127 0 127 -137v-416q0 -137 -127 -137h-364q-131 0 -131 137z" />
<glyph unicode="&#x2026;" horiz-adv-x="3043" d="M113 135v84q0 141 129 141h120q127 0 127 -137v-88q0 -137 -127 -137h-118q-131 0 -131 137zM1332 135v84q0 141 129 141h120q127 0 127 -137v-88q0 -137 -127 -137h-118q-131 0 -131 137zM2550 135v84q0 141 129 141h120q127 0 127 -137v-88q0 -137 -127 -137h-118 q-131 0 -131 137z" />
<glyph unicode="&#x202f;" horiz-adv-x="413" />
<glyph unicode="&#x2039;" horiz-adv-x="575" d="M35 770v98l452 451v-160l-340 -340l340 -340v-162z" />
<glyph unicode="&#x203a;" horiz-adv-x="612" d="M125 315v160l340 340l-340 340v162l453 -453v-98z" />
<glyph unicode="&#x205f;" horiz-adv-x="516" />
<glyph unicode="&#x20ac;" horiz-adv-x="1300" d="M27 524v181h778v-181h-778zM27 934v180h778v-180h-778zM149 287v1065q0 287 430 286q307 0 377 -137v137h228v-530h-226v223q0 68 -190 68q-188 0 -189 -68v-1024q0 -68 189 -67q190 0 190 67v234h226v-254q0 -287 -580 -287q-455 0 -455 287z" />
<glyph unicode="&#x2122;" horiz-adv-x="1677" d="M93 914v13h29v-13h-5v7h-4v-28h3v-6h-16v6h2v28h-4v-7h-5zM702 887v6h3v28h-3v6h16l6 -22l7 22h13v-6h-3v-28h3v-6h-15v6h3v24l-9 -30h-4l-9 30v-24h3v-6h-11z" />
<glyph unicode="&#x25fc;" horiz-adv-x="1228" d="M0 0v1229h1229v-1229h-1229z" />
<glyph unicode="&#xfb01;" horiz-adv-x="1404" d="M20 778v246h105v328q0 287 430 286h479q127 0 127 -137v-88q0 -137 -127 -137h-200q-129 0 -132 125l-34 2q-113 0 -113 -98v-281h594v-784q0 -35 37 -35t37 35v374h131v-409q0 -205 -201 -205h-229q-205 0 -205 203v575h-164v-778h-430v778h-105z" />
<glyph unicode="&#xfb02;" horiz-adv-x="1447" d="M20 778v246h105v328q0 287 430 286h635v-1398q0 -35 37 -35t37 35v374h131v-409q0 -205 -201 -205h-229q-205 0 -205 203v1190h-150q-55 0 -55 -58v-311h133v-246h-133v-778h-430v778h-105z" />
</font>
</defs>
</svg>
